<svg width="0" height="0" class="hidden">
    <symbol fill="none" xmlns="http://www.w3.org/2000/svg" viewBox="0 0 26 26" id="check">
        <path d="M12.9983 2.79199C7.36056 2.79199 2.79028 7.36227 2.79028 13C2.79028 18.6377 7.36056 23.208 12.9983 23.208C18.636 23.208 23.2063 18.6377 23.2063 13C23.2063 7.36227 18.636 2.79199 12.9983 2.79199ZM0.238281 13C0.238281 5.95284 5.95113 0.23999 12.9983 0.23999C20.0454 0.23999 25.7583 5.95284 25.7583 13C25.7583 20.0471 20.0454 25.76 12.9983 25.76C5.95113 25.76 0.238281 20.0471 0.238281 13ZM18.95 8.8563C19.4767 9.32448 19.5242 10.131 19.056 10.6577L12.2506 18.3137C12.0085 18.5861 11.6614 18.742 11.297 18.742C10.9325 18.742 10.5854 18.5861 10.3433 18.3137L6.94059 14.4857C6.4724 13.959 6.51984 13.1525 7.04655 12.6843C7.57327 12.2161 8.37979 12.2636 8.84798 12.7903L11.297 15.5454L17.1486 8.96226C17.6168 8.43555 18.4233 8.38811 18.95 8.8563Z"
              fill="#0346F2"/>
    </symbol>
</svg>
